<?xml version="1.0" standalone="no"?><!DOCTYPE svg PUBLIC "-//W3C//DTD SVG 1.1//EN" "http://www.w3.org/Graphics/SVG/1.1/DTD/svg11.dtd"><svg t="1499162221826" class="icon" style="" viewBox="0 0 1448 1024" version="1.1" xmlns="http://www.w3.org/2000/svg" p-id="1055" xmlns:xlink="http://www.w3.org/1999/xlink" width="181" height="128"><defs><style type="text/css"></style></defs><path d="M1071.682193 394.799409c7.567155-11.630265 5.040183-27.117215-5.024701-36.156861-11.32751-9.039645-26.444618-6.464507-35.258917 5.167478-1.250585 1.279828-141.001263 170.420105-307.179357 170.420104-161.108668 0-307.160435-170.420105-308.4093-171.715414-8.816019-10.334955-25.197473-11.614783-35.260637-2.59234-10.078645 9.039645-11.32751 25.821906-2.526972 36.156861 2.526972 3.872168 32.733665 38.733719 80.570676 77.465717l-64.202984 68.441553c-10.078645 10.319473-8.798817 27.118936 1.264347 36.156861 2.51149 5.151996 8.798817 7.742615 15.103346 7.742615 6.304529 0 12.590136-2.59234 17.630318-7.759817l69.243167-73.59527c32.733665 23.246768 71.754657 45.196506 114.551485 60.683457l-26.430856 91.67284c-3.775837 14.207123 3.775837 28.414245 17.614836 32.284692h7.567155c11.32751 0 21.390673-7.744335 23.917646-19.359118l26.430856-91.67284c20.159011 3.872168 41.549684 6.447305 62.940357 6.447306 21.406155 0 42.81231-2.576858 62.95756-6.462787l26.429136 90.393011c2.526972 11.614783 13.854482 19.359118 23.919365 19.359119 2.525252 0 5.040183 0 6.302809-1.279828 13.83728-3.88765 21.404435-18.07929 17.632039-32.286413l-26.449779-90.393012c42.81403-15.486951 81.836742-37.436689 114.553206-60.666255l67.994302 72.313722c5.040183 5.151996 11.32751 7.727133 17.614836 7.727133 6.302809 0 12.590136-2.575138 17.630319-7.744335 10.080366-10.334955 10.080366-25.821906 1.262626-36.156861l-64.216745-68.426072c51.611128-38.733719 81.8161-76.185889 81.8161-76.185889l0.013761 0.020643z" p-id="1056" fill="#e3e3e3"></path></svg>