<?xml version="1.0" standalone="no"?><!DOCTYPE svg PUBLIC "-//W3C//DTD SVG 1.1//EN" "http://www.w3.org/Graphics/SVG/1.1/DTD/svg11.dtd"><svg t="1499162255834" class="icon" style="" viewBox="0 0 1448 1024" version="1.1" xmlns="http://www.w3.org/2000/svg" p-id="1224" xmlns:xlink="http://www.w3.org/1999/xlink" width="181" height="128"><defs><style type="text/css"></style></defs><path d="M724.109125 670.631582c129.12673 0 304.273942-131.942696 316.430587-168.209649-4.739148-39.769278-169.582368-183.457492-316.430587-183.457493-139.704233 0-316.499395 114.498159-316.499395 184.350276 3.639941 34.410859 173.359925 167.316866 316.499395 167.316866z m0 35.166026c-146.710603 0-351.665421-138.056283-351.665421-202.20766 0-101.722242 206.191641-219.791533 351.665421-219.791534 159.142481 0 351.665421 154.678565 351.665421 219.791534 0 54.191426-210.380325 202.20766-351.665421 202.20766m0-123.083672c48.490687 0 87.915925-39.494046 87.915925-87.915925 0-48.423599-39.494046-87.915925-87.915925-87.915925-48.423599 0-87.915925 39.425239-87.915925 87.915925 0 48.490687 39.425239 87.915925 87.915925 87.915925z m0 35.167747c-67.997742 0-123.083672-55.085929-123.083671-123.083672s55.085929-123.083672 123.083671-123.083672 123.083672 55.085929 123.083672 123.083672-55.085929 123.083672-123.083672 123.083672" p-id="1225" fill="#e3e3e3"></path></svg>