<?xml version="1.0" standalone="no"?><!DOCTYPE svg PUBLIC "-//W3C//DTD SVG 1.1//EN" "http://www.w3.org/Graphics/SVG/1.1/DTD/svg11.dtd"><svg t="1499162212636" class="icon" style="" viewBox="0 0 1448 1024" version="1.1" xmlns="http://www.w3.org/2000/svg" p-id="883" xmlns:xlink="http://www.w3.org/1999/xlink" width="181" height="128"><defs><style type="text/css"></style></defs><path d="M888.171375 483.842064H589.885446v-49.438516c0-81.914151 60.081387-148.315549 134.223679-148.315549s134.239161 66.401398 134.239162 148.315549v1.030399h0.187501c0.498858 8.590673 6.820589 15.449106 14.716302 15.449106 7.912915 0 14.217444-6.858433 14.731783-15.449106h0.187502v-1.030399c0-100.117296-73.455933-181.27456-164.06225-181.27456-90.621798 0-164.06225 81.157264-164.06225 181.27456v49.438516c-32.959011 0-59.659938 29.510012-59.659938 65.918022v164.795054c0 36.40801 26.700927 65.918022 59.659938 65.918022h328.12278c32.943529 0 59.659938-29.510012 59.661658-65.918022V549.758366c0-36.406289-26.716409-65.916302-59.659938-65.916302z m29.821368 230.713076c0 18.203145-13.359065 32.959011-29.821368 32.959011H560.046875c-16.479505 0-29.83857-14.755866-29.83857-32.959011V549.758366c0-18.203145 13.359065-32.959011 29.83857-32.959011h328.12278c16.479505 0 29.823088 14.755866 29.823088 32.959011v164.796774z" p-id="884" fill="#e3e3e3"></path><path d="M888.169655 783.836151H560.046875c-34.751458 0-63.024647-31.078833-63.024647-69.281011V549.758366c0-36.961914 26.46698-67.256337 59.659938-69.18468V434.401828c0-101.809972 75.107324-184.639269 167.425239-184.639269s167.425239 82.827577 167.425238 184.639269v4.393388h-0.617551c-1.862975 8.879667-9.134256 15.449106-17.666443 15.449106-8.539067 0-15.803467-6.56944-17.656121-15.449106h-0.610671v-4.393388c0-79.927322-58.710388-144.95256-130.876172-144.95256-72.155463 0-130.858971 65.025239-130.858971 144.95256v46.073807h294.92122c34.751458 0 63.024647 31.078833 63.024648 69.282731v164.796774c0.00172 38.202177-28.271469 69.281011-63.022927 69.281011z m-328.12278-296.631098c-31.042709 0-56.296949 28.061605-56.296949 62.555033v164.796775c0 34.491708 25.25424 62.553313 56.296949 62.553312h328.12278c31.042709 0 56.296949-28.061605 56.296949-62.553312v-164.796775c0-34.493428-25.25424-62.555033-56.296949-62.555033H586.522457v-52.801505c0-83.63607 61.720736-151.680258 137.586668-151.680258 75.167531 0 136.449617 66.783282 137.586669 149.345948h0.013761l0.184061 3.168606c0.400806 6.885956 5.389383 12.28222 11.358474 12.282221 5.96565 0 10.961107-5.396264 11.373955-12.287381l0.17202-2.857251c-0.985674-97.170595-72.690445-175.881736-160.68722-175.881736-88.609165 0-160.697541 79.810348-160.69754 177.911571v52.801505h-3.36643z m328.1245 263.673807H560.046875c-18.308077 0-33.203279-16.293724-33.203279-36.32372V549.758366c0-20.028276 14.895202-36.322 33.203279-36.322h328.12278c18.299476 0 33.186077 16.295444 33.186077 36.322v164.796774c0.00172 20.029996-14.884881 36.32372-33.184357 36.32372z m-328.1245-230.713076c-14.597608 0-26.475581 13.274775-26.475581 29.594302v164.796775c0 16.319527 11.876253 29.596022 26.475581 29.596022h328.1245c14.589007 0 26.458379-13.276495 26.458379-29.596022v-164.796775c0-16.319527-11.869372-29.594302-26.458379-29.594302H560.046875z" p-id="885" fill="#e3e3e3"></path><path d="M739.011208 645.305093v52.770542c0 9.098132-6.664051 16.479505-14.903803 16.479505s-14.919285-7.381373-14.919285-16.479505v-52.770542c-17.291439-6.827469-29.823088-24.65045-29.823088-46.09961 0-27.309878 20.023115-49.447117 44.742373-49.447117 24.703776 0 44.740653 22.13724 44.740653 49.447117 0.00172 21.45088-12.545411 39.272141-29.83685 46.09961" p-id="886" fill="#e3e3e3"></path><path d="M724.109125 582.719097c-8.239753 0-14.919285 7.381373-14.919285 16.488106 0 9.089531 6.679532 16.472625 14.919285 16.472625s14.903803-7.381373 14.903803-16.472625c-0.00172-9.108453-6.664051-16.488106-14.903803-16.488106M724.109125 582.719097z" p-id="887" fill="#e3e3e3"></path></svg>