<?xml version="1.0" standalone="no"?><!DOCTYPE svg PUBLIC "-//W3C//DTD SVG 1.1//EN" "http://www.w3.org/Graphics/SVG/1.1/DTD/svg11.dtd"><svg t="1499162181568" class="icon" style="" viewBox="0 0 1448 1024" version="1.1" xmlns="http://www.w3.org/2000/svg" p-id="714" xmlns:xlink="http://www.w3.org/1999/xlink" width="181" height="128"><defs><style type="text/css"></style></defs><path d="M958.4415 749.432173c0 11.700793-9.478296 21.179089-21.168768 21.179089-11.700793 0-21.179089-9.478296-21.179089-21.179089l-0.189222-1.966187c0-0.836017 0.151378-1.64279 0.237388-2.468486-13.219729-92.952668-92.914823-161.258325-189.951243-162.331729-0.77925 0.018922-1.518936 0.123854-2.308507 0.123854-0.768929 0-1.510335-0.104932-2.279264-0.123854-95.925171 1.063083-174.859938 67.860126-189.40938 159.197527 0.483376 1.795888 0.825695 3.646822 0.825695 5.594087l0.199543 1.99543c0 11.881414-9.629673 21.512807-21.502486 21.512808s-21.512807-9.629673-21.512807-21.512808l-0.018922-0.189221h-0.407688c0.056767-0.626152 0.180621-1.224782 0.247709-1.842333 0-1.776965 0.285553-3.4576 0.682919-5.108991 11.026475-85.696869 68.448434-154.98132 146.603951-184.82161-45.502701-29.157371-75.172692-80.672168-75.172692-139.528773 0-91.034646 70.729418-164.831179 161.762344-164.831179 91.024325 0 161.762344 73.796533 161.762344 164.831179 0 58.837683-29.640747 110.342158-75.124526 139.499529 77.613654 29.604623 134.779304 98.080581 146.42333 182.922511 0.787851 2.222497 1.309071 4.58777 1.309071 7.085499l0.1703 1.962747z m-109.972316-331.425561c0-68.828598-55.78777-124.618089-124.618089-124.618089-68.830319 0-124.618089 55.798092-124.618089 124.618089 0 68.818277 55.798092 124.607768 124.618089 124.607768s124.618089-55.789491 124.618089-124.607768z" p-id="715" fill="#e3e3e3"></path></svg>